<svg xmlns="http://www.w3.org/2000/svg" version="1.1" xmlns:xlink="http://www.w3.org/1999/xlink" xmlns:svgjs="http://svgjs.dev/svgjs" width="1000" height="1000" viewBox="0 0 1000 1000"><rect width="1000" height="1000" fill="#ffffff"></rect><g transform="matrix(0.7,0,0,0.7,149.57575757575756,282.1265587044535)"><svg viewBox="0 0 396 247" data-background-color="#ffffff" preserveAspectRatio="xMidYMid meet" height="623" width="1000" xmlns="http://www.w3.org/2000/svg" xmlns:xlink="http://www.w3.org/1999/xlink"><defs></defs><g id="tight-bounds" transform="matrix(1,0,0,1,0.2400000000000091,-0.09999999999999432)"><svg viewBox="0 0 395.52 247.2" height="247.2" width="395.52"><g><svg></svg></g><g><svg viewBox="0 0 395.52 247.2" height="247.2" width="395.52"><g transform="matrix(26.72008327968409, 0, 0, 26.72008327968409, 1, 24.976803708266743)"><svg xmlns="http://www.w3.org/2000/svg" xmlns:xlink="http://www.w3.org/1999/xlink" xml:space="preserve" style="shape-rendering:geometricPrecision;text-rendering:geometricPrecision;image-rendering:optimizeQuality;" viewBox="0.0000020265579223632812 0.0000027120113372802734 14.727499008178711 7.38195276260376" x="0" y="0" fill-rule="evenodd" clip-rule="evenodd" width="14.727499008178711" height="7.38195276260376" class="icon-none" data-fill-palette-color="accent" id="none"><g fill="#096a2e" data-fill-palette-color="accent"><path class="" d="M1.757 3.091c-0.313 0.444-0.296 1.331-0.417 1.95-0.153 0.784-0.711 1.203-1.34 1.534 0.188-0.771 0.348-1.542 0.412-2.313 0.078-0.953-0.06-0.891 0.767-1.575 1.159-0.961 3.04-1.741 5.848-2.29 2.456-0.406 5.049-0.453 7.701-0.351-0.89 1.809-3.733 1.961-7.203 1.581-1.811 0.02-3.495-0.488-5.768 1.464z m8.33 2.781c-3.895 2.038-7.803-2.284-9.165 0.688 2.104-1.831 5.079 3.183 9.165-0.688z m2.489-2.547c-4.49 2.72-9.502-0.792-10.907 1.859 3.412-1.235 7.765 2.753 10.907-1.859z m0.834-1.478c-3.944 1.761-10.043-1.402-11.565 2.239 3.106-1.808 8.446 1.438 11.565-2.239z" fill="#000000" data-fill-palette-color="accent"></path></g></svg></g><rect width="348.05760000000004" height="84.44929646892052" fill="#ffffff" y="81.37535176553973" x="23.731199999999973" data-fill-palette-color="quaternary"></rect><g transform="matrix(1,0,0,1,39.55199999999999,94.91773876986869)"><svg viewBox="0 0 316.416 57.364522460262606" height="57.364522460262606" width="316.416"><g><svg viewBox="0 0 316.416 57.364522460262606" height="57.364522460262606" width="316.416"><g><svg viewBox="0 0 316.416 57.364522460262606" height="57.364522460262606" width="316.416"><g><svg viewBox="0 0 316.416 57.364522460262606" height="57.364522460262606" width="316.416"><g><svg viewBox="0 0 316.416 57.364522460262606" height="57.364522460262606" width="316.416"><g><svg viewBox="0 0 316.416 57.364522460262606" height="57.364522460262606" width="316.416"><g transform="matrix(1,0,0,1,0,0)"><svg width="316.416" viewBox="5 -39.04999923706055 217.02999877929688 39.349998474121094" height="57.364522460262606" data-palette-color="#096a2e"><path d="M30.55 0L6.5 0Q5.85 0 5.43-0.43 5-0.85 5-1.5L5-1.5 5-37.55Q5-38.2 5.43-38.63 5.85-39.05 6.5-39.05L6.5-39.05 30.55-39.05Q31.15-39.05 31.6-38.63 32.05-38.2 32.05-37.55L32.05-37.55Q32.05-36.95 31.6-36.5 31.15-36.05 30.55-36.05L30.55-36.05 8-36.05 8-21.05 24.55-21.05Q25.2-21.05 25.63-20.63 26.05-20.2 26.05-19.55L26.05-19.55Q26.05-18.9 25.63-18.45 25.2-18 24.55-18L24.55-18 8-18 8-3 30.55-3Q31.15-3 31.6-2.55 32.05-2.1 32.05-1.5L32.05-1.5Q32.05-0.85 31.6-0.43 31.15 0 30.55 0L30.55 0ZM50.9 0.3L50.9 0.3Q47 0.3 43.92-1.55 40.85-3.4 39.07-6.55 37.3-9.7 37.3-13.65L37.3-13.65Q37.3-17.65 38.95-20.8 40.6-23.95 43.5-25.78 46.4-27.6 50.15-27.6L50.15-27.6Q53.35-27.6 56-26.38 58.65-25.15 60.6-22.65L60.6-22.65Q61-22.15 60.9-21.6 60.8-21.05 60.25-20.7L60.25-20.7Q59.8-20.35 59.25-20.43 58.7-20.5 58.3-21L58.3-21Q55.1-24.8 50.15-24.8L50.15-24.8Q47.2-24.8 44.97-23.35 42.75-21.9 41.52-19.4 40.3-16.9 40.3-13.65L40.3-13.65Q40.3-10.5 41.65-7.98 43-5.45 45.37-3.98 47.75-2.5 50.9-2.5L50.9-2.5Q52.95-2.5 54.77-3.1 56.6-3.7 57.95-4.95L57.95-4.95Q58.4-5.35 58.95-5.4 59.5-5.45 59.9-5.05L59.9-5.05Q60.4-4.6 60.42-4.03 60.45-3.45 60-3.05L60-3.05Q56.35 0.3 50.9 0.3ZM80.95 0.3L80.95 0.3Q76.95 0.3 73.77-1.53 70.6-3.35 68.77-6.53 66.95-9.7 66.95-13.65L66.95-13.65Q66.95-17.65 68.77-20.83 70.6-24 73.77-25.83 76.95-27.65 80.95-27.65L80.95-27.65Q84.95-27.65 88.1-25.83 91.25-24 93.07-20.83 94.9-17.65 94.9-13.65L94.9-13.65Q94.9-9.7 93.07-6.53 91.25-3.35 88.1-1.53 84.95 0.3 80.95 0.3ZM80.95-2.5L80.95-2.5Q84.1-2.5 86.57-3.98 89.05-5.45 90.47-7.98 91.9-10.5 91.9-13.7L91.9-13.7Q91.9-16.85 90.47-19.38 89.05-21.9 86.57-23.38 84.1-24.85 80.95-24.85L80.95-24.85Q77.85-24.85 75.35-23.38 72.85-21.9 71.4-19.38 69.95-16.85 69.95-13.65L69.95-13.65Q69.95-10.5 71.4-7.98 72.85-5.45 75.35-3.98 77.85-2.5 80.95-2.5ZM119.04 0L119.04 0Q118.39 0 117.97-0.43 117.54-0.85 117.54-1.5L117.54-1.5 117.54-37.55Q117.54-38.2 117.97-38.63 118.39-39.05 119.04-39.05L119.04-39.05Q120.04-39.05 120.39-38.3L120.39-38.3 138.09-3.35 136.34-3.35 153.79-38.3Q154.24-39.05 155.14-39.05L155.14-39.05Q155.79-39.05 156.19-38.63 156.59-38.2 156.59-37.55L156.59-37.55 156.59-1.5Q156.59-0.85 156.19-0.43 155.79 0 155.14 0L155.14 0Q154.49 0 154.04-0.43 153.59-0.85 153.59-1.5L153.59-1.5 153.59-33.95 154.34-33.7 138.39-1.2Q138.04-0.5 137.09-0.5L137.09-0.5Q136.19-0.5 135.69-1.45L135.69-1.45 119.54-33.7 120.54-33.95 120.54-1.5Q120.54-0.85 120.12-0.43 119.69 0 119.04 0ZM178.59 0.3L178.59 0.3Q174.59 0.3 171.41-1.53 168.24-3.35 166.41-6.53 164.59-9.7 164.59-13.65L164.59-13.65Q164.59-17.65 166.41-20.83 168.24-24 171.41-25.83 174.59-27.65 178.59-27.65L178.59-27.65Q182.59-27.65 185.74-25.83 188.89-24 190.71-20.83 192.54-17.65 192.54-13.65L192.54-13.65 191.29-11.65Q191.29-8.25 189.61-5.55 187.94-2.85 185.09-1.28 182.24 0.3 178.59 0.3ZM178.59-2.5L178.59-2.5Q181.74-2.5 184.21-3.98 186.69-5.45 188.11-7.98 189.54-10.5 189.54-13.65L189.54-13.65Q189.54-16.85 188.11-19.38 186.69-21.9 184.21-23.38 181.74-24.85 178.59-24.85L178.59-24.85Q175.49-24.85 172.99-23.38 170.49-21.9 169.04-19.38 167.59-16.85 167.59-13.65L167.59-13.65Q167.59-10.5 169.04-7.98 170.49-5.45 172.99-3.98 175.49-2.5 178.59-2.5ZM191.09 0L191.09 0Q190.39 0 189.96-0.43 189.54-0.85 189.54-1.5L189.54-1.5 189.54-10.65 190.49-13.65 192.54-13.65 192.54-1.5Q192.54-0.85 192.14-0.43 191.74 0 191.09 0ZM202.54 0L202.54 0Q201.89 0 201.46-0.43 201.04-0.85 201.04-1.5L201.04-1.5 201.04-25.85Q201.04-26.55 201.46-26.95 201.89-27.35 202.54-27.35L202.54-27.35Q203.24-27.35 203.64-26.95 204.04-26.55 204.04-25.85L204.04-25.85 204.04-1.5Q204.04-0.85 203.64-0.43 203.24 0 202.54 0ZM202.49-33.1L202.49-33.1Q201.54-33.1 200.86-33.77 200.19-34.45 200.19-35.45L200.19-35.45Q200.19-36.6 200.91-37.18 201.64-37.75 202.54-37.75L202.54-37.75Q203.39-37.75 204.11-37.18 204.84-36.6 204.84-35.45L204.84-35.45Q204.84-34.45 204.16-33.77 203.49-33.1 202.49-33.1ZM220.53 0L219.53 0Q217.63 0 216.16-1.05 214.68-2.1 213.86-3.95 213.03-5.8 213.03-8.25L213.03-8.25 213.03-37.55Q213.03-38.25 213.46-38.65 213.88-39.05 214.53-39.05L214.53-39.05Q215.23-39.05 215.63-38.65 216.03-38.25 216.03-37.55L216.03-37.55 216.03-8.25Q216.03-5.95 217.01-4.48 217.98-3 219.53-3L219.53-3 220.78-3Q221.33-3 221.68-2.6 222.03-2.2 222.03-1.5L222.03-1.5Q222.03-0.85 221.63-0.43 221.23 0 220.53 0L220.53 0Z" opacity="1" transform="matrix(1,0,0,1,0,0)" fill="#000000" class="undefined-text-0" data-fill-palette-color="primary" id="text-0"></path></svg></g></svg></g></svg></g></svg></g></svg></g></svg></g></svg></g></svg></g></svg><rect width="395.52" height="247.2" fill="none" stroke="none" visibility="hidden"></rect></g></svg></g></svg>